<?xml version="1.0" standalone="no"?><!DOCTYPE svg PUBLIC "-//W3C//DTD SVG 1.1//EN" "http://www.w3.org/Graphics/SVG/1.1/DTD/svg11.dtd"><svg t="1712374834752" class="icon" viewBox="0 0 1024 1024" version="1.1" xmlns="http://www.w3.org/2000/svg" p-id="2216" xmlns:xlink="http://www.w3.org/1999/xlink" width="200" height="200"><path d="M909.503526 461.355615c-5.173096-26.891378-30.304711-42.497896-38.267259-47.559111-5.935407-3.77363 28.002607-144.11283 28.002607-144.11283 6.629452-0.709215 11.819615-6.200889 11.819615-12.946015 0-7.226785-5.927822-13.082548-13.241837-13.082548-7.30643 0-13.241837 5.855763-13.241837 13.082548 0 4.755911 2.59603 8.876563 6.434133 11.169185 0 0-36.471467 139.717215-40.815881 141.391644-4.344415 1.67443-23.282726 2.262281-24.456533-0.5632-1.173807-2.825481-19.285333-140.384711-19.285333-140.384711 5.696474-1.467733 9.91763-6.536533 9.91763-12.617956 0-7.228681-5.927822-13.090133-13.239941-13.090133-7.30643 0-13.241837 5.861452-13.241837 13.090133 0 5.421511 3.348859 10.069333 8.087704 12.056652 0 0 15.578074 140.964978 8.425244 142.633719-7.15283 1.668741-21.593126 9.003615-31.645393 15.870104-33.974044 23.265659-50.331496 111.701333-59.183407 153.025422-12.55917 12.695704-1.501867-82.386489-81.944652-174.910578-80.291081-92.34963-278.751763-108.564859-380.594252 44.445393-50.301156 75.5712-37.931615 192.303407-4.243911 252.516504-44.557274 0.730074-89.338311-0.572681-89.338311-0.572681-41.940385 8.897422-86.87123 62.215585 17.978785 65.1776 104.846222 2.960119 505.215052 40.58643 587.702044-14.002252 65.327407-43.254519 93.50637-124.237748 87.51597-168.673659C846.664059 538.862933 921.499496 523.559822 909.503526 461.355615z" fill="#1296db" p-id="2217"></path></svg>